<svg width="201" height="218" viewBox="0 0 201 218" fill="none" xmlns="http://www.w3.org/2000/svg">
<rect x="0.5" width="200" height="218" fill="#3C9747"/>
<g filter="url(#filter0_d_976_12212)">
<circle cx="100" cy="109.5" r="85.5" fill="#42A54D"/>
<circle cx="100" cy="109.5" r="83" stroke="white" stroke-width="5"/>
</g>
<g clip-path="url(#clip0_976_12212)">
<path d="M138.278 64.3405L98.5165 103.989C97.8866 104.617 97.8853 105.637 98.5135 106.267C99.142 106.896 100.162 106.898 100.792 106.27L140.554 66.6211C141.184 65.993 141.185 64.9731 140.557 64.3435C139.928 63.7138 138.908 63.7123 138.278 64.3405Z" fill="white"/>
<path d="M116.26 97.8268C116.889 98.4565 117.909 98.4577 118.539 97.8298L145.183 71.2617C145.813 70.6335 145.814 69.6139 145.186 68.984C144.557 68.3544 143.537 68.3531 142.907 68.981L116.263 95.5492C115.633 96.1773 115.632 97.1967 116.26 97.8268Z" fill="white"/>
<path d="M111.55 100.249L103.145 108.63C102.515 109.258 102.514 110.278 103.143 110.907C103.771 111.537 104.791 111.538 105.421 110.91L113.825 102.529C115.284 100.971 113.11 98.796 111.55 100.249Z" fill="white"/>
<path d="M155.187 68.8996C148.705 60.0787 140.961 54.5491 140.634 54.318C140.022 53.8847 139.191 53.9311 138.631 54.431C135.138 57.5475 131.47 60.9165 127.727 64.4442C127.079 65.0543 127.049 66.0735 127.659 66.7205C128.27 67.368 129.29 67.3981 129.936 66.7876C133.308 63.6103 136.618 60.5632 139.791 57.7152C141.949 59.3975 147.164 63.7394 151.804 69.7614C132.804 90.8094 110.977 111.218 103.257 118.314C98.9247 112.592 93.639 108.146 91.0781 106.146C96.4673 100.314 109.569 86.3516 124.75 71.7296C126.235 70.1965 124.1 67.9848 122.515 69.4099C102.595 88.5953 86.2299 106.664 86.0669 106.844C85.7993 107.14 85.6512 107.525 85.6512 107.924C85.6516 115.876 82.1185 125.099 82.0831 125.191C81.8529 125.785 81.9946 126.459 82.4445 126.91C82.7525 127.218 83.1652 127.383 83.5857 127.383C83.7794 127.383 83.975 127.348 84.1627 127.276C84.2027 127.25 93.5834 123.716 101.448 123.755C101.845 123.755 102.229 123.608 102.525 123.342C102.81 123.085 131.364 97.3586 155.088 70.928C155.598 70.3612 155.639 69.5142 155.187 68.8996ZM87.3447 119.006C88.6089 119.713 89.6601 120.767 90.3641 122.033C88.7698 122.422 87.3389 122.832 86.1717 123.194C86.5372 122.029 86.9519 120.599 87.3447 119.006ZM93.6113 121.331C92.512 118.869 90.5157 116.867 88.0553 115.762C88.4943 113.455 88.8181 110.979 88.8669 108.554C88.8735 108.547 88.8817 108.538 88.8885 108.53C91.2499 110.367 96.6385 114.847 100.866 120.499C100.852 120.512 100.836 120.527 100.822 120.539C98.3971 120.581 95.9191 120.899 93.6113 121.331Z" fill="white"/>
<path d="M62.7044 153.849C61.3714 152.854 60.0936 151.749 58.9114 150.57C45.3512 136.926 45.3898 114.786 58.9975 101.218C67.9084 92.3322 80.9735 88.9514 93.0921 92.3943C93.9479 92.6376 94.8386 92.1409 95.0819 91.2855C95.3253 90.4299 94.8288 89.5392 93.973 89.2961C56.2386 78.9665 29.3441 124.85 56.6312 152.846C57.9264 154.137 59.3214 155.343 60.7768 156.43C61.4829 156.959 62.4958 156.82 63.0312 156.103C63.5636 155.39 63.4173 154.382 62.7044 153.849Z" fill="white"/>
<path d="M118.089 114.332C117.233 114.575 116.735 115.465 116.978 116.321C125.138 145.325 95.1224 170.404 68.1494 157.181C67.3512 156.789 66.3857 157.118 65.9933 157.917C65.601 158.715 65.9298 159.68 66.7282 160.072C72.0712 162.698 77.8027 163.975 83.488 163.975C108.258 164.307 127.175 139.417 120.078 115.443C119.835 114.587 118.944 114.09 118.089 114.332Z" fill="white"/>
<path d="M85.0493 101.522C87.183 101.574 87.3679 98.5099 85.2447 98.3068C79.9932 97.9868 74.7962 99.1559 70.2164 101.686C69.4375 102.116 69.1553 103.096 69.5855 103.874C70.018 104.66 71.0106 104.931 71.7744 104.505C75.8182 102.272 80.4072 101.241 85.0493 101.522Z" fill="white"/>
<path d="M83.5412 153.57C90.9259 153.553 97.8664 150.652 103.084 145.401C108.645 139.807 111.56 132.073 111.082 124.185C111.028 123.297 110.266 122.619 109.376 122.674C108.488 122.728 107.812 123.491 107.866 124.379C108.288 131.353 105.713 138.188 100.799 143.131C96.1883 147.771 90.057 150.334 83.5341 150.349H83.4772C76.9866 150.349 70.8767 147.82 66.2733 143.23C56.7581 133.656 56.7852 118.12 66.3334 108.6C66.9633 107.971 66.9646 106.952 66.3364 106.322C65.7079 105.692 64.688 105.691 64.0582 106.319C53.2547 117.092 53.2229 134.668 63.9929 145.505C69.21 150.708 76.1269 153.57 83.477 153.57H83.5412V153.57Z" fill="white"/>
<path d="M80.2263 112.783C81.0885 112.565 81.6101 111.689 81.3915 110.826C81.1727 109.965 80.2967 109.442 79.4339 109.662C66.9472 112.721 62.5426 128.778 71.6938 137.826C74.845 140.968 79.0187 142.697 83.4506 142.697H83.489C87.9713 142.687 92.1926 140.918 95.3759 137.715C97.4996 135.578 99.011 132.911 99.7465 130.002C99.9645 129.14 99.442 128.264 98.5793 128.046C97.7182 127.83 96.8409 128.35 96.6227 129.213C96.0287 131.562 94.807 133.717 93.0903 135.445C90.5146 138.036 87.102 139.468 83.4817 139.476H83.4506C79.8782 139.476 76.5117 138.081 73.974 135.551C66.5797 128.239 70.1384 115.258 80.2263 112.783Z" fill="white"/>
</g>
<defs>
<filter id="filter0_d_976_12212" x="3.77892" y="14.8105" width="192.442" height="192.442" filterUnits="userSpaceOnUse" color-interpolation-filters="sRGB">
<feFlood flood-opacity="0" result="BackgroundImageFix"/>
<feColorMatrix in="SourceAlpha" type="matrix" values="0 0 0 0 0 0 0 0 0 0 0 0 0 0 0 0 0 0 127 0" result="hardAlpha"/>
<feOffset dy="1.53158"/>
<feGaussianBlur stdDeviation="5.36054"/>
<feComposite in2="hardAlpha" operator="out"/>
<feColorMatrix type="matrix" values="0 0 0 0 0 0 0 0 0 0 0 0 0 0 0 0 0 0 0.25 0"/>
<feBlend mode="normal" in2="BackgroundImageFix" result="effect1_dropShadow_976_12212"/>
<feBlend mode="normal" in="SourceGraphic" in2="effect1_dropShadow_976_12212" result="shape"/>
</filter>
<clipPath id="clip0_976_12212">
<rect width="110" height="110" fill="white" transform="translate(45.5 54)"/>
</clipPath>
</defs>
</svg>
