<svg width="332" height="219" viewBox="0 0 332 219" fill="none" xmlns="http://www.w3.org/2000/svg">
<rect x="0.5" y="0.78894" width="331" height="218" fill="#014F92"/>
<g filter="url(#filter0_d_303_433417)">
<ellipse cx="165.5" cy="109.5" rx="85" ry="85.5" fill="#173F72"/>
<path d="M248 109.5C248 155.353 211.05 192.5 165.5 192.5C119.95 192.5 83 155.353 83 109.5C83 63.6465 119.95 26.5 165.5 26.5C211.05 26.5 248 63.6465 248 109.5Z" stroke="white" stroke-width="5"/>
</g>
<path d="M158.625 130.44C156.242 130.175 153.897 129.633 151.64 128.824C151.709 127.202 151.75 125.51 151.75 123.75V121.434C153.881 122.451 156.198 123.159 158.625 123.51V106.563C158.625 103.828 159.711 101.205 161.645 99.2709C163.579 97.3369 166.202 96.2504 168.938 96.2504H185.884C185.336 92.4409 183.882 88.8184 181.644 85.6871C179.406 82.5558 176.45 80.007 173.023 78.2546C169.597 76.5022 165.8 75.5973 161.951 75.616C158.102 75.6346 154.314 76.5762 150.904 78.3617C150.361 76.1131 149.465 73.9645 148.251 71.9954C152.707 69.7708 157.636 68.6553 162.616 68.7437C167.596 68.8321 172.482 70.1217 176.857 72.503C181.232 74.8843 184.968 78.2868 187.746 82.4212C190.524 86.5557 192.263 91.2999 192.814 96.2504H203.312C206.048 96.2504 208.671 97.3369 210.605 99.2709C212.539 101.205 213.625 103.828 213.625 106.563V140.938C213.625 143.673 212.539 146.296 210.605 148.23C208.671 150.164 206.048 151.25 203.312 151.25H168.938C166.202 151.25 163.579 150.164 161.645 148.23C159.711 146.296 158.625 143.673 158.625 140.938V130.44ZM192.814 103.125C192.033 110.101 188.904 116.603 183.941 121.567C178.978 126.53 172.475 129.659 165.5 130.44V140.938C165.5 141.85 165.862 142.724 166.507 143.369C167.151 144.013 168.026 144.375 168.938 144.375H203.312C204.224 144.375 205.099 144.013 205.743 143.369C206.388 142.724 206.75 141.85 206.75 140.938V106.563C206.75 105.651 206.388 104.777 205.743 104.132C205.099 103.488 204.224 103.125 203.312 103.125H192.814ZM185.884 103.125H168.938C168.026 103.125 167.151 103.488 166.507 104.132C165.862 104.777 165.5 105.651 165.5 106.563V123.51C170.642 122.767 175.406 120.38 179.08 116.706C182.754 113.032 185.141 108.268 185.884 103.125V103.125ZM143.466 106.982C142.744 104.329 141.575 101.668 139.568 99.626C142.813 96.5529 144.875 91.6579 144.875 85.9379C144.875 81.146 143.906 77.8529 142.153 75.2198C141.375 74.0873 140.476 73.043 139.471 72.1054C139.086 71.7338 138.697 71.3671 138.303 71.0054C137.883 70.6135 137.498 70.256 136.996 69.7542C135.965 68.7229 135.848 67.8979 135.848 67.4648C135.849 67.224 135.889 66.985 135.965 66.7567C136.279 66.0769 136.363 65.3131 136.203 64.5814C136.044 63.8497 135.65 63.1901 135.081 62.703C134.512 62.2158 133.8 61.9278 133.052 61.8827C132.305 61.8375 131.563 62.0378 130.939 62.4529L130.926 62.4598L130.905 62.4735L130.843 62.5148L130.637 62.6523C129.606 63.3879 128.612 64.1749 127.66 65.0104C125.941 66.5298 123.7 68.7779 122.112 71.4592C120.726 73.682 119.613 76.0643 118.798 78.5542C117.973 81.0223 117.375 83.6967 117.375 85.9379C117.375 91.6579 119.437 96.546 122.682 99.6329C120.675 101.668 119.506 104.329 118.784 106.989C117.375 112.159 117.375 118.553 117.375 123.496V123.75C117.375 137.899 120.022 146.3 123.019 151.299C124.525 153.801 126.093 155.417 127.406 156.434C128.105 156.98 128.867 157.441 129.674 157.809C130.141 157.98 130.629 158.086 131.125 158.125C131.702 158.125 132.576 157.809 132.576 157.809C133.383 157.441 134.145 156.98 134.844 156.434C136.151 155.417 137.732 153.801 139.231 151.299C142.228 146.307 144.875 137.899 144.875 123.75V123.503C144.875 118.553 144.875 112.166 143.466 106.982ZM127.598 104.439C128.375 103.655 129.413 103.125 131.125 103.125C132.844 103.125 133.875 103.662 134.652 104.432C135.518 105.305 136.267 106.721 136.831 108.79C137.972 112.991 138 118.505 138 123.75C138 137.102 135.491 144.169 133.332 147.765C132.507 149.14 131.73 150.027 131.125 150.584C130.261 149.752 129.518 148.803 128.918 147.765C126.759 144.162 124.25 137.102 124.25 123.75C124.25 118.505 124.278 112.991 125.419 108.79C125.983 106.728 126.732 105.305 127.598 104.432V104.439ZM131.125 96.2504C128.478 96.2504 124.25 93.3079 124.25 85.9379C124.25 84.7485 124.607 82.8648 125.322 80.7335C125.974 78.7215 126.872 76.7979 127.997 75.0067C128.595 73.996 129.372 73.0129 130.211 72.1123C130.685 72.951 131.311 73.7967 132.136 74.6217C132.638 75.1235 133.291 75.7285 133.847 76.251L134.7 77.0485C135.422 77.7498 135.979 78.3617 136.426 79.0423C137.251 80.2729 138 82.136 138 85.9379C138 93.3079 133.772 96.2504 131.125 96.2504Z" fill="white"/>
<defs>
<filter id="filter0_d_303_433417" x="69.7789" y="14.8105" width="191.442" height="192.442" filterUnits="userSpaceOnUse" color-interpolation-filters="sRGB">
<feFlood flood-opacity="0" result="BackgroundImageFix"/>
<feColorMatrix in="SourceAlpha" type="matrix" values="0 0 0 0 0 0 0 0 0 0 0 0 0 0 0 0 0 0 127 0" result="hardAlpha"/>
<feOffset dy="1.53158"/>
<feGaussianBlur stdDeviation="5.36054"/>
<feComposite in2="hardAlpha" operator="out"/>
<feColorMatrix type="matrix" values="0 0 0 0 0 0 0 0 0 0 0 0 0 0 0 0 0 0 0.25 0"/>
<feBlend mode="normal" in2="BackgroundImageFix" result="effect1_dropShadow_303_433417"/>
<feBlend mode="normal" in="SourceGraphic" in2="effect1_dropShadow_303_433417" result="shape"/>
</filter>
</defs>
</svg>
