<svg width="201" height="218" viewBox="0 0 201 218" fill="none" xmlns="http://www.w3.org/2000/svg">
<rect x="0.5" width="200" height="218" fill="#EAB130"/>
<g filter="url(#filter0_d_976_12194)">
<circle cx="100" cy="109.5" r="85.5" fill="#ECB73D"/>
<circle cx="100" cy="109.5" r="83" stroke="white" stroke-width="5"/>
</g>
<g clip-path="url(#clip0_976_12194)">
<path d="M74.2417 136.961C73.4511 137.369 73.1411 138.341 73.5493 139.132C76.527 144.898 77.2772 150.364 75.7793 155.38C74.6594 159.13 72.6278 161.235 72.6123 161.251C71.9841 161.882 71.9858 162.902 72.6164 163.53C73.2466 164.158 74.2671 164.156 74.895 163.526C74.998 163.422 77.4343 160.942 78.8106 156.489C80.0625 152.438 80.6625 145.882 76.4129 137.653C76.0045 136.862 75.0323 136.552 74.2417 136.961Z" fill="white"/>
<path d="M72.3043 131.226C71.1205 129.669 69.8772 128.172 68.675 126.725C62.3751 119.138 56.4246 111.973 56.4246 94.6867C56.4246 86.6621 58.7414 79.117 63.1245 72.8676C63.6354 72.1388 63.4592 71.1342 62.7307 70.6231C62.0019 70.1122 60.9971 70.2884 60.4862 71.0171C55.7207 77.8118 53.2019 85.9967 53.2019 94.6869C53.2019 113.137 59.8075 121.091 66.1957 128.784C67.3762 130.206 68.5972 131.676 69.7393 133.177C70.2811 133.889 71.2954 134.019 71.9973 133.484C72.7056 132.945 72.8431 131.934 72.3043 131.226Z" fill="white"/>
<path d="M66.1811 68.3911C66.5884 68.3911 66.996 68.2375 67.3097 67.9298C74.4472 60.9251 84.1066 57.2227 95.2439 57.2227C100.209 57.2227 115.319 57.2227 125.012 65.9494C125.673 66.5447 126.692 66.4912 127.288 65.8299C127.883 65.1687 127.83 64.1499 127.168 63.5541C116.556 54 100.515 54 95.2439 54C83.2449 54 72.8049 58.0217 65.0523 65.6299C64.4172 66.2532 64.4078 67.2733 65.0308 67.9083C65.3464 68.23 65.7637 68.3911 66.1811 68.3911Z" fill="white"/>
<path d="M143.9 108.474C141.141 105.239 138.014 101.573 138.014 92.4996C138.014 83.5109 136.183 75.9635 132.573 70.0664C132.108 69.3076 131.116 69.0689 130.357 69.5336C129.598 69.9983 129.36 70.9903 129.824 71.7491C138.981 86.8215 129.882 98.1014 141.448 110.566C143.735 113.248 145.182 114.945 144.327 118.699C142.76 118.976 139.506 119.437 136.562 119.145C136.11 119.099 135.659 119.248 135.321 119.554C134.984 119.859 134.791 120.293 134.791 120.749C134.791 122.984 134.901 125.14 135.125 127.34C135.19 127.981 135.632 128.522 136.248 128.714C137.217 129.017 137.951 129.865 138.074 130.826C138.15 131.416 138.023 132.255 136.988 132.901C136.416 133.258 136.127 133.933 136.263 134.593C136.424 135.374 136.589 136.136 136.75 136.876C137.681 141.171 138.486 144.88 137.045 146.667C135.986 147.98 133.428 148.646 129.442 148.646C116.478 148.646 109.409 146.289 109.339 146.266C108.498 145.977 107.583 146.425 107.294 147.266C107.004 148.107 107.452 149.024 108.293 149.313C108.504 149.386 112.1 150.595 118.838 151.323C118.304 154.85 118.833 160.241 123.561 163.69C123.847 163.899 124.18 164 124.509 164C125.006 163.999 125.497 163.77 125.812 163.338C126.336 162.619 126.179 161.611 125.46 161.087C121.517 158.21 121.699 153.753 122.066 151.611C127.328 151.928 136.686 152.699 139.553 148.69C141.962 145.703 141.006 141.296 139.899 136.192C139.809 135.776 139.717 135.353 139.625 134.923C140.885 133.748 141.49 132.13 141.27 130.415C141.032 128.563 139.884 126.951 138.242 126.071C138.138 124.866 138.07 123.668 138.037 122.456C142.025 122.54 145.797 121.702 145.978 121.661C146.546 121.533 147.001 121.109 147.168 120.551C148.996 114.45 146.52 111.548 143.9 108.474Z" fill="white"/>
<path d="M115.507 118.057C114.951 117.362 113.937 117.25 113.242 117.805C95.6161 132.086 68.7763 119.173 68.8818 96.4733C68.8816 81.4158 81.1322 69.1652 96.1902 69.1652C118.379 68.9776 131.512 95.0921 118.116 112.755C117.585 113.47 117.733 114.479 118.448 115.01C119.162 115.541 120.171 115.393 120.702 114.679C135.68 94.9305 120.999 65.7303 96.19 65.9427C79.3554 65.9425 65.6591 79.6388 65.6591 96.4735C65.5666 121.885 95.5044 136.251 115.256 120.321C115.95 119.765 116.063 118.751 115.507 118.057Z" fill="white"/>
<path d="M114.3 96.4735C114.227 94.3412 111.152 94.3401 111.078 96.4735C111.078 103.36 106.377 109.167 100.017 110.86C100.609 110.08 101.179 109.201 101.681 108.214C102.084 107.42 101.767 106.45 100.974 106.047C100.181 105.644 99.2105 105.961 98.8077 106.754C96.7381 110.829 93.1764 112.753 93.1455 112.769C92.476 113.118 92.1415 113.886 92.337 114.615C92.5325 115.345 93.2097 115.836 93.9655 115.808C94.0065 115.805 98.0512 115.661 101.899 118.129C102.637 118.605 103.642 118.397 104.125 117.641C104.605 116.892 104.388 115.896 103.638 115.415C102.704 114.816 101.765 114.344 100.857 113.971C108.588 111.907 114.3 104.846 114.3 96.4735Z" fill="white"/>
<path d="M90.856 87.0494C91.09 87.1684 91.339 87.2245 91.5845 87.2245C92.1719 87.2243 92.7383 86.902 93.0225 86.3426C95.0921 82.2676 98.6538 80.3441 98.6847 80.3276C99.3541 79.9785 99.6887 79.2113 99.4932 78.4819C99.2976 77.7523 98.6213 77.2639 97.8646 77.2893C97.8227 77.2908 93.779 77.4354 89.9311 74.9683C89.1817 74.4884 88.1853 74.7064 87.7049 75.4554C87.2247 76.2045 87.4426 77.2012 88.1917 77.6816C89.1295 78.2827 90.072 78.756 90.983 79.1301C83.5279 81.3728 78.0803 88.2974 78.0803 96.4733C78.0803 97.3634 78.8018 98.0847 79.6917 98.0847C80.5815 98.0847 81.303 97.3634 81.303 96.4733C81.303 89.7895 85.7307 84.1213 91.8065 82.2455C91.2165 83.0237 90.6489 83.8992 90.1492 84.8829C89.7461 85.6766 90.0626 86.6466 90.856 87.0494Z" fill="white"/>
</g>
<defs>
<filter id="filter0_d_976_12194" x="3.77892" y="14.8105" width="192.442" height="192.442" filterUnits="userSpaceOnUse" color-interpolation-filters="sRGB">
<feFlood flood-opacity="0" result="BackgroundImageFix"/>
<feColorMatrix in="SourceAlpha" type="matrix" values="0 0 0 0 0 0 0 0 0 0 0 0 0 0 0 0 0 0 127 0" result="hardAlpha"/>
<feOffset dy="1.53158"/>
<feGaussianBlur stdDeviation="5.36054"/>
<feComposite in2="hardAlpha" operator="out"/>
<feColorMatrix type="matrix" values="0 0 0 0 0 0 0 0 0 0 0 0 0 0 0 0 0 0 0.25 0"/>
<feBlend mode="normal" in2="BackgroundImageFix" result="effect1_dropShadow_976_12194"/>
<feBlend mode="normal" in="SourceGraphic" in2="effect1_dropShadow_976_12194" result="shape"/>
</filter>
<clipPath id="clip0_976_12194">
<rect width="110" height="110" fill="white" transform="translate(45.5 54)"/>
</clipPath>
</defs>
</svg>
