<svg width="201" height="218" viewBox="0 0 201 218" fill="none" xmlns="http://www.w3.org/2000/svg">
<rect x="0.5" width="200" height="218" fill="#17337A"/>
<g filter="url(#filter0_d_976_12232)">
<circle cx="100" cy="109.5" r="85.5" fill="#2D4687"/>
<circle cx="100" cy="109.5" r="83" stroke="white" stroke-width="5"/>
</g>
<path d="M78.1294 148.347C78.1221 148.347 78.1146 148.347 78.1073 148.348C77.2174 148.36 76.5058 149.09 76.5178 149.98C76.6135 157.081 72.6477 161.215 72.6124 161.251C71.9844 161.882 71.9861 162.902 72.6165 163.53C73.2469 164.158 74.2671 164.156 74.8953 163.526C75.0977 163.323 79.8546 158.45 79.7403 149.937C79.7283 149.054 79.0092 148.347 78.1294 148.347Z" fill="white"/>
<path d="M76.9853 144.799C77.1471 144.799 77.3116 144.774 77.4741 144.723C78.3221 144.453 78.7908 143.547 78.5214 142.699C77.3245 138.935 75.2328 135.075 72.3045 131.226C71.1207 129.669 69.8774 128.172 68.6751 126.725C62.3753 119.139 56.4245 111.973 56.4245 94.6867C56.4245 85.7548 59.2411 77.546 64.5701 70.9477C65.1294 70.2555 65.0213 69.241 64.3288 68.6818C63.6364 68.1227 62.6219 68.2306 62.0629 68.923C56.266 76.1005 53.2017 85.0097 53.2017 94.6867C53.2017 113.137 59.8075 121.091 66.1956 128.784C67.3762 130.205 68.5971 131.675 69.7393 133.177C72.4437 136.732 74.3651 140.264 75.4498 143.676C75.6681 144.361 76.3021 144.799 76.9853 144.799Z" fill="white"/>
<path d="M69.5614 65.9017C76.4359 60.224 85.3167 57.2227 95.2438 57.2227C100.583 57.2227 116.831 57.2227 126.467 67.3652C127.08 68.0112 128.1 68.036 128.745 67.4237C129.39 66.8107 129.416 65.7908 128.803 65.1457C118.215 54 100.925 54 95.2438 54C84.5588 54 74.9683 57.2564 67.5092 63.4172C66.823 63.984 66.7261 64.9994 67.2928 65.6858C67.8594 66.3713 68.875 66.4687 69.5614 65.9017Z" fill="white"/>
<path d="M143.899 108.474C141.141 105.239 138.014 101.573 138.014 92.4996C138.014 84.0047 136.378 76.7893 133.152 71.0537C132.716 70.2779 131.733 70.0029 130.958 70.4392C130.182 70.8756 129.907 71.858 130.343 72.6336C138.665 87.396 130.086 98.2946 141.447 110.566C143.735 113.248 145.182 114.945 144.327 118.699C142.76 118.976 139.506 119.437 136.562 119.145C136.11 119.098 135.658 119.248 135.321 119.554C134.984 119.859 134.791 120.293 134.791 120.749C134.791 122.984 134.9 125.14 135.125 127.34C135.19 127.981 135.632 128.522 136.248 128.714C137.217 129.017 137.95 129.865 138.074 130.826C138.15 131.416 138.023 132.255 136.988 132.901C136.416 133.258 136.127 133.933 136.263 134.593C136.424 135.374 136.589 136.136 136.75 136.876C137.681 141.171 138.486 144.88 137.045 146.667C135.986 147.98 133.428 148.646 129.442 148.646C116.542 148.646 109.479 146.313 109.341 146.266C108.499 145.978 107.583 146.425 107.294 147.266C107.004 148.107 107.452 149.024 108.293 149.314C108.505 149.386 112.1 150.595 118.838 151.323C118.303 154.85 118.833 160.241 123.561 163.69C123.847 163.899 124.18 164 124.509 164C125.006 163.999 125.497 163.77 125.812 163.338C126.336 162.619 126.179 161.611 125.46 161.087C121.517 158.21 121.699 153.753 122.066 151.611C127.328 151.928 136.685 152.699 139.553 148.69C141.962 145.703 141.006 141.296 139.899 136.193C139.809 135.776 139.717 135.353 139.625 134.923C140.885 133.748 141.49 132.13 141.27 130.415C141.032 128.563 139.883 126.95 138.242 126.071C138.138 124.866 138.07 123.668 138.037 122.456C142.021 122.535 145.797 121.701 145.978 121.661C146.546 121.533 147.001 121.109 147.168 120.551C148.996 114.45 146.52 111.548 143.899 108.474Z" fill="white"/>
<path d="M107.996 123.472C108.09 122.071 108.199 120.162 108.29 117.808C109.063 117.786 109.758 117.763 110.354 117.739C112.484 117.582 112.358 114.507 110.227 114.519C109.692 114.54 109.076 114.561 108.394 114.581C108.414 113.824 108.431 113.037 108.445 112.216C111.65 109.9 114.093 106.752 115.536 103.062C115.861 102.233 115.452 101.299 114.623 100.975C113.794 100.65 112.859 101.059 112.535 101.888C111.23 105.223 108.956 108.035 105.957 110.018C105.513 110.312 105.242 110.807 105.235 111.34C105.219 112.51 105.196 113.617 105.168 114.661C104.119 114.683 102.998 114.701 101.834 114.716C101.928 109.579 102.452 104.853 102.97 101.335C103.463 101.315 103.899 101.295 104.256 101.276C106.381 101.085 106.216 98.0213 104.081 98.058C103.903 98.0677 103.706 98.0773 103.498 98.087C103.822 96.2722 104.066 95.2062 104.073 95.1744C104.274 94.3077 103.734 93.4421 102.868 93.2408C102.001 93.0408 101.135 93.5792 100.934 94.4458C100.9 94.5941 100.587 95.9605 100.2 98.1944C97.9583 98.249 94.7851 98.2539 92.6947 98.1839C92.309 95.9562 91.9966 94.5937 91.9623 94.4458C91.4071 92.3848 88.4135 93.0814 88.823 95.1744C88.8303 95.2057 89.0687 96.249 89.3878 98.0269C89.1893 98.014 89.0058 98.0017 88.8367 97.9903C86.7029 97.9265 86.4977 100.988 88.6201 101.206C89.0271 101.233 89.4576 101.261 89.9195 101.288C90.439 104.809 90.9671 109.552 91.0621 114.71C89.845 114.69 88.7424 114.663 87.729 114.633C87.7013 113.6 87.6781 112.5 87.6617 111.34C87.6542 110.807 87.3839 110.313 86.9394 110.019C72.7539 100.602 79.4128 78.3717 96.4482 78.3094C105.97 78.3094 113.717 86.0618 113.717 95.5907C113.717 96.4808 114.438 97.2021 115.328 97.2021C116.218 97.2021 116.94 96.4808 116.94 95.5907C116.94 84.2848 107.747 75.0867 96.448 75.0867C76.6729 75.1312 68.4588 100.647 84.4524 112.216C84.4661 113.014 84.4829 113.778 84.502 114.515C83.8642 114.488 83.2613 114.459 82.6838 114.431C81.7913 114.388 81.0394 115.074 80.9964 115.963C80.9534 116.852 81.6392 117.607 82.528 117.65C83.1837 117.682 83.8719 117.714 84.606 117.745C84.6971 120.086 84.806 121.988 84.8999 123.383C84.9541 124.188 85.5945 124.828 86.3993 124.883C86.8217 124.911 87.2634 124.94 87.7303 124.968C89.4888 134.825 103.325 134.87 105.154 125.035C105.644 125.015 106.089 124.994 106.475 124.973C107.289 124.928 107.941 124.284 107.996 123.472ZM93.2041 101.422C95.0749 101.472 97.7396 101.468 99.6915 101.428C99.1847 104.994 98.697 109.65 98.6102 114.745C97.1999 114.753 95.6679 114.754 94.2866 114.745C94.1996 109.646 93.7113 104.988 93.2041 101.422ZM96.4486 117.974C99.4607 117.974 102.469 117.938 105.062 117.887C105.003 119.396 104.936 120.713 104.87 121.821C100.727 122.029 91.7635 122.05 88.0272 121.757C87.9666 120.719 87.8989 119.405 87.837 117.86C90.155 117.927 92.934 117.974 96.4486 117.974ZM96.4482 129.203C93.8883 129.203 91.7255 127.475 91.0593 125.124C94.0248 125.236 98.6482 125.226 101.832 125.141C101.16 127.484 99.0018 129.203 96.4482 129.203Z" fill="white"/>
<path d="M109.712 69.3811L107.798 72.6978C106.796 74.5762 109.454 76.1222 110.589 74.3083L112.503 70.9916C112.948 70.2209 112.684 69.2354 111.913 68.7907C111.142 68.3453 110.157 68.61 109.712 69.3811Z" fill="white"/>
<path d="M117.718 109.737L121.033 111.652C121.79 112.093 122.786 111.84 123.234 111.063C123.679 110.292 123.415 109.307 122.645 108.862L119.33 106.947C118.559 106.502 117.574 106.766 117.128 107.536C116.683 108.307 116.947 109.292 117.718 109.737Z" fill="white"/>
<path d="M75.1787 81.4429L71.8637 79.528C71.093 79.0828 70.1075 79.3466 69.6624 80.1173C69.2172 80.8877 69.4811 81.8734 70.2517 82.3184L73.5667 84.2333C74.3236 84.6743 75.3203 84.4217 75.768 83.6439C76.2132 82.8735 75.9494 81.8878 75.1787 81.4429Z" fill="white"/>
<path d="M80.9835 68.7907C80.2129 69.2354 79.9484 70.2209 80.3931 70.9916L82.3072 74.3083C82.7545 75.0863 83.7509 75.3393 84.5082 74.8987C85.2791 74.454 85.5434 73.4685 85.0986 72.6978L83.1846 69.3811C82.7397 68.61 81.7539 68.3453 80.9835 68.7907Z" fill="white"/>
<path d="M73.5667 106.947L70.2517 108.862C69.4811 109.307 69.2172 110.292 69.6624 111.063C70.1099 111.841 71.1068 112.093 71.8637 111.652L75.1787 109.737C75.9494 109.292 76.2132 108.307 75.768 107.536C75.3231 106.765 74.3372 106.502 73.5667 106.947Z" fill="white"/>
<path d="M118.525 84.4496C118.799 84.4496 119.076 84.38 119.33 84.2332L122.645 82.3183C123.416 81.8734 123.679 80.8877 123.234 80.1171C122.789 79.3468 121.804 79.0828 121.033 79.528L117.718 81.4429C116.947 81.8878 116.683 82.8735 117.129 83.6441C117.427 84.1606 117.968 84.4496 118.525 84.4496Z" fill="white"/>
<path d="M94.8369 66.2564V70.0862C94.9108 72.2198 97.9865 72.2181 98.0596 70.0862V66.2564C97.9857 64.1228 94.9102 64.1243 94.8369 66.2564Z" fill="white"/>
<path d="M67.1297 97.2016H70.9576C73.0912 97.1277 73.0895 94.052 70.9576 93.979H67.1297C64.9961 94.0529 64.9978 97.1284 67.1297 97.2016Z" fill="white"/>
<path d="M127.378 95.5903C127.378 94.7002 126.657 93.979 125.767 93.979H121.939C119.805 94.0529 119.807 97.1284 121.939 97.2016H125.767C126.657 97.2016 127.378 96.4802 127.378 95.5903Z" fill="white"/>
<defs>
<filter id="filter0_d_976_12232" x="3.77892" y="14.8105" width="192.442" height="192.442" filterUnits="userSpaceOnUse" color-interpolation-filters="sRGB">
<feFlood flood-opacity="0" result="BackgroundImageFix"/>
<feColorMatrix in="SourceAlpha" type="matrix" values="0 0 0 0 0 0 0 0 0 0 0 0 0 0 0 0 0 0 127 0" result="hardAlpha"/>
<feOffset dy="1.53158"/>
<feGaussianBlur stdDeviation="5.36054"/>
<feComposite in2="hardAlpha" operator="out"/>
<feColorMatrix type="matrix" values="0 0 0 0 0 0 0 0 0 0 0 0 0 0 0 0 0 0 0.25 0"/>
<feBlend mode="normal" in2="BackgroundImageFix" result="effect1_dropShadow_976_12232"/>
<feBlend mode="normal" in="SourceGraphic" in2="effect1_dropShadow_976_12232" result="shape"/>
</filter>
</defs>
</svg>
