<svg width="332" height="219" viewBox="0 0 332 219" fill="none" xmlns="http://www.w3.org/2000/svg">
<rect x="0.5" y="0.78894" width="331" height="218" fill="#119539"/>
<g filter="url(#filter0_d_303_433407)">
<ellipse cx="165.5" cy="109.5" rx="85" ry="85.5" fill="#0A6526"/>
<path d="M248 109.5C248 155.353 211.05 192.5 165.5 192.5C119.95 192.5 83 155.353 83 109.5C83 63.6465 119.95 26.5 165.5 26.5C211.05 26.5 248 63.6465 248 109.5Z" stroke="white" stroke-width="5"/>
</g>
<path d="M133.92 63.2702L129.08 68.1033L136.281 75.3014L141.114 70.4683L133.916 63.2702H133.92ZM197.084 63.2702L189.882 70.4683L194.719 75.3014L201.917 68.1067L197.083 63.2726C197.082 63.2717 197.082 63.2702 197.084 63.2702V63.2702ZM165.5 65.4152C164.366 65.4289 163.217 65.4942 162.062 65.6352C162.028 65.6352 161.994 65.6283 161.959 65.6352C148.017 67.2336 136.921 78.4983 134.992 92.3789C133.452 103.551 138.058 113.681 145.734 120.205C148.874 122.885 150.998 126.562 151.75 130.621V151.246H159.587C160.784 153.298 162.967 154.684 165.5 154.684C168.033 154.684 170.216 153.298 171.412 151.246H179.25V137.496H179.573V133.412C179.573 128.373 182.193 123.292 186.448 119.343C192.141 113.643 196.438 105.548 196.438 96.2495C196.438 79.2683 182.461 65.257 165.5 65.4152ZM165.5 72.2902C178.786 72.1045 189.562 82.9808 189.562 96.2495C189.562 103.448 186.228 109.786 181.612 114.4L181.722 114.51C177.134 118.74 174.167 124.44 173.334 130.625H158.298C157.542 124.733 155.016 119.03 150.241 114.939C144.167 109.783 140.547 102.014 141.757 93.2417C143.259 82.4136 152.046 73.7064 162.812 72.5136C163.701 72.3897 164.596 72.3162 165.493 72.2936L165.5 72.2902ZM117.375 96.2495V103.125H127.688V96.2495H117.375ZM203.312 96.2495V103.125H213.625V96.2495H203.312ZM136.281 124.073L129.083 131.267L133.92 136.104L141.111 128.906L136.281 124.073ZM194.719 124.073L189.886 128.906L197.08 136.104L201.917 131.267L194.719 124.073ZM158.625 137.5H172.375V144.375H158.625V137.5Z" fill="white"/>
<defs>
<filter id="filter0_d_303_433407" x="69.7789" y="14.8105" width="191.442" height="192.442" filterUnits="userSpaceOnUse" color-interpolation-filters="sRGB">
<feFlood flood-opacity="0" result="BackgroundImageFix"/>
<feColorMatrix in="SourceAlpha" type="matrix" values="0 0 0 0 0 0 0 0 0 0 0 0 0 0 0 0 0 0 127 0" result="hardAlpha"/>
<feOffset dy="1.53158"/>
<feGaussianBlur stdDeviation="5.36054"/>
<feComposite in2="hardAlpha" operator="out"/>
<feColorMatrix type="matrix" values="0 0 0 0 0 0 0 0 0 0 0 0 0 0 0 0 0 0 0.25 0"/>
<feBlend mode="normal" in2="BackgroundImageFix" result="effect1_dropShadow_303_433407"/>
<feBlend mode="normal" in="SourceGraphic" in2="effect1_dropShadow_303_433407" result="shape"/>
</filter>
</defs>
</svg>
