<svg width="201" height="218" viewBox="0 0 201 218" fill="none" xmlns="http://www.w3.org/2000/svg">
<rect x="0.5" width="200" height="218" fill="#457AF5"/>
<g filter="url(#filter0_d_976_12257)">
<circle cx="100" cy="109.5" r="85.5" fill="#5485F6"/>
<circle cx="100" cy="109.5" r="83" stroke="white" stroke-width="5"/>
</g>
<path d="M57.2152 85.0323C57.4507 85.4613 57.8686 85.7604 58.3507 85.8446C58.8336 85.9286 59.3273 85.7892 59.6943 85.4654C59.7751 85.3943 61.3654 83.9862 63.0931 82.168C66.4046 85.2407 76.3257 94.5381 88.4882 106.785C85.1072 110.218 81.5189 113.91 78.1435 117.431C77.5275 118.074 77.549 119.094 78.1914 119.71C78.8329 120.325 79.8532 120.305 80.4698 119.662C85.5221 114.392 91.052 108.738 95.6413 104.151C105.33 94.4655 117.889 82.466 123.638 77.4017C124.108 76.9872 124.296 76.3375 124.118 75.7362C122.624 70.674 124.013 65.2133 127.743 61.4851C131.376 57.8533 136.7 56.4758 141.576 57.7451C138.889 60.5587 136.532 63.2111 134.551 65.6511C134.054 66.2622 134.072 67.1422 134.593 67.7328C134.727 67.8851 137.929 71.5054 141.834 74.9724C142.424 75.4962 143.307 75.5155 143.919 75.0186C146.362 73.0362 149.016 70.6792 151.83 67.994C153.099 72.8684 151.722 78.191 148.089 81.8219C147.738 82.1729 147.367 82.5083 146.986 82.8181C146.296 83.3801 146.192 84.3951 146.754 85.0851C147.315 85.7754 148.33 85.8801 149.021 85.3176C149.486 84.939 149.939 84.5302 150.367 84.1018C155.508 78.9634 156.959 71.0588 153.98 64.4323C153.764 63.9517 153.327 63.6071 152.809 63.5096C152.291 63.4122 151.759 63.5736 151.382 63.9423C148.381 66.8848 145.551 69.4683 142.954 71.6384C140.829 69.6767 138.983 67.7459 137.933 66.6143C140.102 64.0205 142.685 61.1933 145.629 58.1924C146.412 57.4376 146.143 56.0117 145.139 55.594C138.511 52.6161 130.604 54.0674 125.464 59.2056C121.144 63.5233 119.39 69.7392 120.762 75.644C115.661 80.1964 106.673 88.7399 98.3335 96.9431C86.0826 84.7854 76.7822 74.8678 73.7073 71.5568C75.5256 69.8301 76.9339 68.2407 77.005 68.1601C77.3292 67.7929 77.4688 67.2984 77.3846 66.8158C77.3004 66.3333 77.0013 65.9152 76.5719 65.6797C74.1751 64.3662 71.7058 62.995 69.2323 61.6052C67.3361 60.624 65.8307 63.3065 67.6534 64.4149C69.517 65.4623 71.3784 66.4987 73.2085 67.5085C72.44 68.3049 71.4253 69.314 70.3596 70.2546C70.0354 70.5408 69.8397 70.9453 69.8169 71.3774C69.7939 71.8092 69.9456 72.2323 70.2378 72.5513C70.3461 72.6697 80.9691 84.2505 96.0396 99.2073C94.2222 101.008 92.5675 102.661 90.7527 104.492C75.7911 89.4267 64.2056 78.8069 64.0874 78.6987C63.7686 78.4067 63.3482 78.2574 62.9142 78.2784C62.4826 78.3012 62.0782 78.4967 61.792 78.8207C60.8506 79.8863 59.8406 80.9013 59.0435 81.6695C54.3992 73.2573 50.4803 66.5335 49.079 64.1479C49.7158 63.3368 50.8055 62.0218 52.1799 60.6481C53.5547 59.2737 54.8706 58.1842 55.6814 57.5478C56.7221 58.1586 58.5866 59.2477 61.0416 60.6579C61.8131 61.1005 62.7982 60.8348 63.2416 60.063C63.6848 59.2913 63.4186 58.3062 62.6469 57.863C58.801 55.6538 56.416 54.2399 56.3924 54.2257C55.8449 53.9008 55.1581 53.9286 54.6388 54.2966C54.5458 54.3625 52.3329 55.9382 49.9015 58.3683C47.4698 60.7993 45.8937 63.0116 45.828 63.1044C45.4598 63.6239 45.432 64.3116 45.7571 64.859C45.8085 64.946 50.9899 73.6829 57.2152 85.0323Z" fill="white"/>
<path d="M155.495 147.828C155 142.122 149.757 137.717 144.693 134.16C143.965 133.648 142.96 133.824 142.448 134.552C141.937 135.281 142.112 136.286 142.841 136.797C147.036 139.744 151.902 143.693 152.284 148.106C152.515 150.774 151.157 153.541 148.132 156.565C145.055 159.641 142.24 160.996 139.527 160.702C133.904 160.096 128.86 152.242 124.41 145.312C122.096 141.709 119.895 138.281 117.594 135.689C119.172 134.237 120.816 132.658 122.515 130.959C124.215 129.26 125.796 127.616 127.248 126.038C129.841 128.339 133.27 130.539 136.875 132.853L137.19 133.055C137.928 133.532 138.933 133.324 139.417 132.569C139.897 131.82 139.68 130.823 138.931 130.343L138.615 130.14C135.125 127.9 131.804 125.769 129.401 123.639C130.214 122.71 130.976 121.807 131.686 120.933C132.182 120.322 132.164 119.442 131.644 118.851C131.523 118.714 128.642 115.456 125.127 112.336C124.537 111.812 123.655 111.793 123.042 112.29C121.586 113.472 120.049 114.799 118.443 116.261C116.595 114.548 114.716 112.787 112.832 111.003C120.973 102.727 129.41 93.8549 133.923 88.8011C136.515 89.4009 139.228 89.4095 141.829 88.8194C142.697 88.6223 143.241 87.7591 143.044 86.8909C142.847 86.0229 141.983 85.48 141.116 85.676C138.712 86.2215 136.193 86.1417 133.831 85.4454C133.23 85.2684 132.581 85.4557 132.166 85.9256C120.909 98.7656 90.159 129.474 77.4238 140.714C76.9568 141.128 76.7701 141.774 76.9447 142.372C80.1423 153.02 70.1206 163.185 59.4731 160.318C62.1604 157.505 64.5175 154.852 66.499 152.412C66.9951 151.801 66.9772 150.921 66.4567 150.331C66.3222 150.178 63.121 146.558 59.2151 143.091C58.6251 142.567 57.7426 142.548 57.13 143.045C54.6879 145.027 52.0341 147.384 49.2199 150.069C47.9501 145.195 49.3279 139.873 52.9608 136.241C56.6765 132.527 62.1222 131.133 67.1725 132.604C67.7707 132.778 68.4163 132.592 68.8296 132.125C70.3494 130.409 72.6218 127.942 75.4011 124.992C76.0115 124.344 75.9809 123.324 75.3332 122.714C74.6854 122.103 73.6656 122.134 73.0552 122.782C70.5909 125.397 68.5841 127.568 67.075 129.25C53.0501 125.935 41.1136 140.514 47.0691 153.631C47.285 154.111 47.7224 154.456 48.2402 154.553C48.7582 154.651 49.2906 154.49 49.667 154.121C52.6694 151.178 55.4987 148.594 58.0955 146.424C60.2204 148.386 62.0665 150.317 63.1165 151.449C60.9476 154.042 58.3643 156.87 55.4207 159.87C54.6376 160.625 54.9066 162.051 55.9106 162.469C58.2055 163.5 60.6531 164 63.0868 164C67.6817 164 72.2252 162.216 75.5854 158.858C79.8892 154.555 81.6483 148.358 80.2989 142.47C85.2281 138.048 94.252 129.448 102.555 121.279C104.34 123.164 106.102 125.042 107.814 126.887C106.351 128.492 105.024 130.028 103.842 131.483C103.346 132.095 103.364 132.975 103.884 133.565C104.005 133.703 106.886 136.96 110.401 140.08C110.991 140.604 111.874 140.623 112.486 140.126C113.361 139.416 114.264 138.654 115.195 137.842C122.1 145.638 128.923 162.922 139.182 163.907C139.532 163.944 139.883 163.963 140.234 163.963C143.591 163.963 147.009 162.245 150.411 158.845C154.099 155.158 155.809 151.452 155.495 147.828ZM104.85 119.015C106.808 117.075 108.629 115.255 110.567 113.298C112.417 115.05 114.263 116.779 116.079 118.465C115.079 119.416 114.057 120.415 113.013 121.458C111.969 122.502 110.969 123.525 110.017 124.524C108.333 122.71 106.603 120.866 104.85 119.015ZM111.521 136.745C109.726 135.081 108.163 133.453 107.226 132.447C111.534 127.278 118.837 119.978 124.007 115.673C125.802 117.337 127.365 118.965 128.302 119.97C123.994 125.14 116.691 132.44 111.521 136.745Z" fill="white"/>
<path d="M119.977 87.3077L78.7944 128.476C77.3378 130.037 79.5128 132.211 81.0728 130.756L122.256 89.5874C122.885 88.9581 122.885 87.9376 122.256 87.3083C121.627 86.6786 120.607 86.6788 119.977 87.3077Z" fill="white"/>
<path d="M134.637 147.997C134.637 150.665 136.806 152.836 139.472 152.836C145.885 152.57 145.883 143.422 139.472 143.158C136.806 143.158 134.637 145.329 134.637 147.997ZM141.083 147.997C141.083 148.888 140.36 149.613 139.472 149.613C137.339 149.537 137.34 146.456 139.472 146.381C140.36 146.381 141.083 147.106 141.083 147.997Z" fill="white"/>
<defs>
<filter id="filter0_d_976_12257" x="3.77892" y="14.8105" width="192.442" height="192.442" filterUnits="userSpaceOnUse" color-interpolation-filters="sRGB">
<feFlood flood-opacity="0" result="BackgroundImageFix"/>
<feColorMatrix in="SourceAlpha" type="matrix" values="0 0 0 0 0 0 0 0 0 0 0 0 0 0 0 0 0 0 127 0" result="hardAlpha"/>
<feOffset dy="1.53158"/>
<feGaussianBlur stdDeviation="5.36054"/>
<feComposite in2="hardAlpha" operator="out"/>
<feColorMatrix type="matrix" values="0 0 0 0 0 0 0 0 0 0 0 0 0 0 0 0 0 0 0.25 0"/>
<feBlend mode="normal" in2="BackgroundImageFix" result="effect1_dropShadow_976_12257"/>
<feBlend mode="normal" in="SourceGraphic" in2="effect1_dropShadow_976_12257" result="shape"/>
</filter>
</defs>
</svg>
