<svg width="201" height="218" viewBox="0 0 201 218" fill="none" xmlns="http://www.w3.org/2000/svg">
<rect x="0.5" width="200" height="218" fill="#296530"/>
<g filter="url(#filter0_d_976_12301)">
<circle cx="100" cy="109.5" r="85.5" fill="#317839"/>
<circle cx="100" cy="109.5" r="83" stroke="white" stroke-width="5"/>
</g>
<g clip-path="url(#clip0_976_12301)">
<path d="M56.5085 137.712C58.0064 135.992 59.5698 134.222 61.1691 132.435C61.6261 131.924 61.7101 131.18 61.3786 130.581C59.7715 127.674 58.4915 124.586 57.5733 121.402C57.3833 120.744 56.7981 120.278 56.1142 120.24C53.7149 120.107 51.3576 119.96 49.0874 119.804C48.3913 110.369 48.8628 101.502 49.0917 98.1953C51.3662 98.0385 53.7222 97.8924 56.1142 97.7598C56.7981 97.722 57.3835 97.2558 57.5733 96.5973C58.4915 93.4133 59.772 90.3254 61.3786 87.4192C61.7103 86.8193 61.6261 86.0756 61.1691 85.5649C59.5698 83.7778 58.0053 82.0064 56.5061 80.2853C62.685 73.1218 69.2883 67.1854 71.7886 65.0086C73.508 66.5063 75.2781 68.0697 77.065 69.6688C77.5756 70.1258 78.3194 70.21 78.9193 69.8783C81.8255 68.2715 84.9136 66.9912 88.0976 66.0732C88.7559 65.8833 89.2221 65.298 89.2601 64.614C89.3927 62.22 89.539 59.8627 89.6958 57.5873C99.1303 56.891 107.998 57.3628 111.304 57.5916C111.461 59.8605 111.607 62.2165 111.74 64.6142C111.778 65.298 112.244 65.8833 112.902 66.0732C116.086 66.9914 119.174 68.2717 122.081 69.8785C122.681 70.21 123.424 70.1258 123.935 69.669C125.722 68.0693 127.494 66.505 129.214 65.0063C131.552 67.0224 133.956 69.2518 136.375 71.6479C137.942 73.0971 140.106 70.9112 138.643 69.3583C135.8 66.5417 132.974 63.9477 130.243 61.648C129.637 61.1374 128.749 61.1436 128.15 61.6624C126.359 63.2127 124.506 64.8419 122.629 66.5149C120.149 65.2215 117.557 64.1465 114.894 63.3081C114.749 60.7932 114.591 58.3315 114.421 55.9759C114.365 55.1888 113.746 54.5582 112.96 54.4867C112.84 54.4759 100.734 53.3985 88.0482 54.486C87.2586 54.5537 86.6354 55.1855 86.5787 55.9759C86.4087 58.3373 86.2502 60.799 86.1058 63.3083C83.443 64.1467 80.8501 65.2215 78.3712 66.5151C76.4935 64.8415 74.6402 63.2127 72.8499 61.6624C72.2533 61.1462 71.3701 61.1371 70.7636 61.6425C70.6703 61.72 61.3485 69.5184 53.1477 79.2577C52.6372 79.864 52.6432 80.7515 53.1621 81.3505C54.713 83.1417 56.342 84.9949 58.0148 86.8718C56.7214 89.3504 55.6463 91.9434 54.808 94.6061C52.2993 94.7503 49.8378 94.9091 47.4758 95.0788C46.6886 95.1353 46.0581 95.7538 45.9865 96.5397C45.9756 96.6605 44.8983 108.766 45.9859 121.452C46.0535 122.242 46.6854 122.865 47.4758 122.921C49.8314 123.091 52.2928 123.25 54.8082 123.394C55.6465 126.057 56.7216 128.65 58.015 131.129C56.3413 133.007 54.7126 134.86 53.1623 136.65C52.6456 137.247 52.6372 138.13 53.1423 138.737C53.2626 138.881 56.1385 142.324 60.6343 146.91C61.2576 147.546 62.2781 147.555 62.9132 146.933C63.5487 146.31 63.5588 145.289 62.9358 144.654C59.9685 141.627 57.6873 139.067 56.5085 137.712Z" fill="white"/>
<path d="M155.014 96.5481C154.947 95.7584 154.315 95.1353 153.524 95.0786C151.162 94.9086 148.7 94.7501 146.192 94.6059C145.354 91.9434 144.278 89.3506 142.985 86.8716C144.66 84.9927 146.289 83.1391 147.838 81.3501C148.354 80.7535 148.363 79.8704 147.858 79.2639C147.799 79.1937 146.399 77.5151 144.026 74.9406C142.525 73.4219 140.265 75.5074 141.656 77.125C142.881 78.454 143.85 79.5493 144.492 80.2879C142.995 82.0064 141.431 83.7767 139.831 85.5651C139.374 86.0758 139.29 86.8196 139.622 87.4192C141.228 90.3256 142.508 93.4135 143.427 96.5973C143.616 97.2556 144.202 97.7218 144.886 97.7598C147.279 97.8926 149.636 98.0389 151.912 98.1958C152.608 107.63 152.137 116.497 151.908 119.804C149.639 119.961 147.283 120.107 144.885 120.24C144.201 120.278 143.616 120.744 143.426 121.403C142.508 124.586 141.228 127.674 139.621 130.581C139.29 131.181 139.374 131.924 139.831 132.435C141.432 134.224 142.996 135.995 144.494 137.715C138.315 144.878 131.711 150.814 129.211 152.991C127.492 151.494 125.722 149.93 123.935 148.331C123.424 147.874 122.68 147.79 122.081 148.121C119.174 149.728 116.086 151.008 112.903 151.926C112.244 152.116 111.778 152.702 111.74 153.385C111.607 155.784 111.46 158.142 111.304 160.412C101.869 161.109 93.0024 160.637 89.6955 160.408C89.5389 158.135 89.3928 155.779 89.26 153.385C89.222 152.701 88.7558 152.116 88.0975 151.926C84.9135 151.008 81.8256 149.728 78.9192 148.121C78.3193 147.789 77.5755 147.874 77.0648 148.331C75.2765 149.931 73.5051 151.495 71.7853 152.994C70.516 151.899 69.222 150.737 67.9252 149.527C67.2744 148.92 66.255 148.955 65.6476 149.606C65.0405 150.256 65.0757 151.276 65.7265 151.883C67.4218 153.465 69.1146 154.969 70.7572 156.352C71.3633 156.862 72.2506 156.856 72.85 156.338C74.6397 154.788 76.4934 153.159 78.3715 151.485C80.8504 152.778 83.4433 153.853 86.1061 154.692C86.2505 157.202 86.4093 159.664 86.579 162.024C86.6355 162.811 87.254 163.442 88.0399 163.513C88.1203 163.521 93.5025 164 100.832 164C104.521 164 108.704 163.878 112.952 163.514C113.742 163.447 114.365 162.815 114.422 162.024C114.591 159.668 114.75 157.207 114.894 154.692C117.557 153.854 120.15 152.779 122.629 151.485C124.507 153.159 126.36 154.788 128.15 156.338C128.747 156.855 129.63 156.863 130.236 156.358C130.33 156.28 139.651 148.482 147.852 138.743C148.363 138.137 148.357 137.249 147.838 136.65C146.289 134.861 144.66 133.008 142.986 131.129C144.279 128.649 145.354 126.056 146.192 123.394C148.708 123.249 151.169 123.091 153.525 122.921C154.312 122.865 154.942 122.246 155.014 121.46C155.025 121.339 156.102 109.234 155.014 96.5481Z" fill="white"/>
<path d="M70.2002 109C70.2002 125.707 83.7925 139.3 100.5 139.3C140.696 137.635 140.685 80.3584 100.5 78.7002C83.7925 78.7002 70.2002 92.2927 70.2002 109ZM100.5 81.9231C129.912 82.3841 137.81 121.821 111.403 133.784C111.624 130.183 111.762 126.603 111.813 123.111C111.826 122.221 111.115 121.489 110.225 121.476C109.338 121.462 108.603 122.174 108.59 123.064C108.533 126.961 108.367 130.968 108.096 134.992C103.315 136.43 97.6843 136.43 92.9036 134.992C92.1091 123.195 92.4021 114.218 92.6879 109.527C96.4702 110.073 103.545 110.308 108.316 109.554C108.402 110.964 108.489 112.756 108.546 114.888C108.57 115.778 109.318 116.479 110.2 116.456C111.09 116.433 111.792 115.692 111.768 114.802C111.611 108.952 111.243 105.662 111.227 105.525C111.187 105.171 111.031 104.841 110.783 104.585C105.679 99.322 102.017 90.8642 101.981 90.78C101.727 90.1875 101.144 89.8035 100.5 89.8033C100.5 89.8033 100.499 89.8033 100.499 89.8033C99.8551 89.8033 99.2724 90.1875 99.0185 90.7796C98.982 90.8644 95.3195 99.3222 90.2157 104.585C89.9678 104.841 89.8116 105.172 89.7712 105.525C89.7181 105.992 88.5414 116.658 89.5956 133.783C63.1733 121.807 71.1088 82.3768 100.5 81.9231ZM100.5 102.639C101.869 102.639 103.193 102.338 104.403 101.76C105.48 103.338 106.691 104.92 108.008 106.342C101.877 107.223 95.7767 106.666 93.0162 106.315C94.3239 104.9 95.526 103.328 96.5968 101.76C97.8065 102.338 99.1311 102.639 100.5 102.639ZM98.3548 99.0117C99.2071 97.5931 99.9294 96.2611 100.5 95.1491C101.07 96.2611 101.793 97.5929 102.645 99.0117C101.302 99.5495 99.6976 99.5495 98.3548 99.0117Z" fill="white"/>
<path d="M100.5 146.044C120.926 146.044 137.544 129.426 137.544 109C137.862 82.354 109.004 63.9069 84.9778 75.3551C84.1698 75.7283 83.8176 76.6858 84.191 77.4938C84.5642 78.3019 85.5222 78.6542 86.3298 78.2806C108.266 67.8327 134.613 84.6722 134.321 109C134.322 127.649 119.149 142.822 100.5 142.822C68.5635 142.793 54.4921 102.038 79.6424 82.3738C80.3421 81.8247 80.4644 80.8117 79.915 80.1115C79.3656 79.4111 78.3527 79.2891 77.6525 79.8382C50.1009 101.382 65.5327 146.019 100.5 146.044Z" fill="white"/>
<path d="M100.505 114.479C99.6145 114.479 98.8931 115.2 98.8931 116.09V130.085C98.967 132.218 102.043 132.217 102.116 130.085V116.09C102.116 115.2 101.395 114.479 100.505 114.479Z" fill="white"/>
</g>
<defs>
<filter id="filter0_d_976_12301" x="3.77892" y="14.8105" width="192.442" height="192.442" filterUnits="userSpaceOnUse" color-interpolation-filters="sRGB">
<feFlood flood-opacity="0" result="BackgroundImageFix"/>
<feColorMatrix in="SourceAlpha" type="matrix" values="0 0 0 0 0 0 0 0 0 0 0 0 0 0 0 0 0 0 127 0" result="hardAlpha"/>
<feOffset dy="1.53158"/>
<feGaussianBlur stdDeviation="5.36054"/>
<feComposite in2="hardAlpha" operator="out"/>
<feColorMatrix type="matrix" values="0 0 0 0 0 0 0 0 0 0 0 0 0 0 0 0 0 0 0.25 0"/>
<feBlend mode="normal" in2="BackgroundImageFix" result="effect1_dropShadow_976_12301"/>
<feBlend mode="normal" in="SourceGraphic" in2="effect1_dropShadow_976_12301" result="shape"/>
</filter>
<clipPath id="clip0_976_12301">
<rect width="110" height="110" fill="white" transform="translate(45.5 54)"/>
</clipPath>
</defs>
</svg>
